<svg version="1" xmlns="http://www.w3.org/2000/svg" width="1550.667" height="1550.667" viewBox="0 0 1163.000000 1163.000000"><path d="M366.7 329.6c-.1.1-5.5.5-11.9.8-6.5.4-12.8.9-14 1.2-1.3.2-4.5.6-7.3.9-2.7.3-6.1.8-7.5 1-1.4.3-4.1.7-6 1-7.9 1.3-10 1.7-22 4.6-63.5 15.4-114.8 48-150.4 95.4-27.8 37-41.6 73.2-47.2 124-2.1 19.1-.2 55.6 4 76 9.8 47.9 30.9 88.6 64.1 123.6 17.9 18.9 43.5 36.2 72.2 48.8 8 3.5 29.8 11.4 35 12.6 1 .3 6.3 1.6 11.8 3 10.2 2.6 28 6 37 7 2.8.4 5.7.8 6.5 1 10.1 2.5 65.8 2.5 80 0 1.4-.3 5-.7 8-1 11.7-1.3 13.8-1.6 33.9-5 1.4-.2 4.7-.9 7.5-1.5s6-1.2 7.1-1.4c5.9-1.3 73.6-18.5 79.3-20.3 9.2-2.8 13.8-10.6 9.4-15.9-.9-1.2-4.6-4.2-8.1-6.7s-7.3-6.1-8.6-7.9c-4.6-6.9-4.8-9-4.1-43.7 1.2-58.4 2.3-67.9 9.3-76.2 3-3.5 9.9-7.2 19.7-10.5 20.4-7 23.9-16.7 8.1-22.5-2.8-1-21.6-1.2-34.5-.4-25 1.6-35 1.9-51.5 1.9-16.2-.1-47.2-1.1-61-2-13.6-.9-30.4-.4-35.3 1.1-5.5 1.7-11.2 6.3-11.2 9.1 0 5.9 9.2 12.2 19 13 2.5.2 5.9.6 7.5.8 1.7.3 5.7.8 9 1.1 14.9 1.7 32.5 8 38.8 14 6.2 5.9 10.6 15.6 11.2 24.9 1.4 18.9 2.1 72 1.1 76.6-.3 1.4-.9 3.8-1.3 5.5-.4 1.6-.7 3.2-.8 3.5-1.3 6.8-8.3 21.6-11.7 24.7-3.7 3.4-17.8 9.2-30.2 12.3-11 2.8-12.9 3.2-25.4 4.8-16.6 2.3-47.5-1.9-70-9.4-64.5-21.6-114.4-73-133.8-137.7-3.3-11.2-7-26.5-7.8-33.2-.2-1.1-.6-3.4-.9-5-.7-3-1.2-8.1-2.6-23.5-.9-9-.6-50.1.3-56 .3-1.9.8-5.3 1.1-7.5.4-2.2.9-5.4 1.1-7 10.1-64.2 45.1-120 93.9-149.5 19.3-11.7 43.6-20.8 62.5-23.6 1.9-.3 4.2-.7 5-.9 4.7-1.3 16.6-2 32.5-1.9 20.2.1 22.4.4 40 3.8 6.2 1.2 23.5 6.6 29 9.1 35.7 15.8 51.9 31 68.9 64.5 2.9 5.8 6.6 13.6 8.1 17.5 4.7 12.2 7.4 16.9 11 19.3 4.8 3.4 8.2 2.1 11.4-4.1 1.9-3.8 2.3-6.3 2.3-12.8 0-4.5-.3-10.2-.6-12.8-.4-2.5-.8-6.9-1.1-9.6-.3-2.8-.7-6.1-.9-7.5-.3-1.4-.7-4.1-1-6-.2-1.9-1.6-10.9-3-20-1.3-9.1-2.7-19.7-3-23.5-.7-9.3-2.1-13.7-5.4-17.2-2.6-2.8-4.4-3.4-18-5.9-1.3-.3-10.1-2.1-19.5-4-9.5-2-18.1-3.8-19.2-4-1.1-.2-3.1-.6-4.5-.9-1.4-.3-5.2-1-8.5-1.6-3.3-.5-7.1-1.2-8.5-1.5-11.2-1.9-26.9-3.9-39-4.9-15.5-1.2-48.5-2.5-49.3-1.9zM837.7 340.6c-.4.4-50.4 1.6-66.2 1.6-9.3-.1-28.5-.4-42.5-.8-28.5-.7-35.3 0-39.5 4.2-7 7 1.9 15.5 19.9 19 11 2.1 23.7 7.8 29.1 13.2 5.2 5.1 7.6 11.1 8.5 21.1.8 9 .5 267-.4 297.1-1 37.2-1.8 51.8-3.1 59-3.8 21.7-11.2 31-31.5 40-.8.4-5.8 1.7-11 3-18.7 4.5-20.1 5-24.1 8.8-7.3 6.8-5.9 13 3.2 15.2 4.7 1.2 33.4.9 46.9-.5 19.7-1.9 108.1-2.4 180.5-1.1 37.3.7 45.2.9 76.5 2.1 42 1.6 37.8 1.8 44.7-1.6 7.6-3.7 9.9-6.4 11.3-13.7.9-4.6 6.5-27.1 8.5-34.2 2.1-7.6 6-20.6 9-30.5 4.5-14.5 5.4-18.6 5.5-24.5 0-6.3-2.3-9.4-6.3-8.6-4.1.8-10.4 6.2-15.2 13.1-18.5 26.5-42.3 53.3-53.6 60.6-11.9 7.6-24.8 9.1-76.9 9.1-41.7 0-60.2-1.4-68.4-5.3-5.1-2.4-13.8-10.8-18.1-17.4-3.1-4.8-3.4-6.1-5-19.5-.3-1.9-.7-8.7-1-15-.3-6.3-.8-14.9-1-19-1.4-22.1-1.9-60.2-1.9-138 .1-88.8 1.1-149.4 2.9-166 .2-2.5.7-7.9 1.1-12 .9-11.4 1.1-12.6 2.9-16.5 4.2-8.7 15.4-14.3 42.9-21.4 15.9-4.1 21.9-8.8 20.2-15.5-1.3-5.2-5-6.1-27.4-6.1-11.2 0-20.4 0-20.5.1z"/></svg>