<?xml version="1.0" standalone="no"?>
<!DOCTYPE svg PUBLIC "-//W3C//DTD SVG 20010904//EN"
 "http://www.w3.org/TR/2001/REC-SVG-20010904/DTD/svg10.dtd">
<svg version="1.0" xmlns="http://www.w3.org/2000/svg"
 width="1163.000000pt" height="1163.000000pt" viewBox="0 0 1163.000000 1163.000000"
 preserveAspectRatio="xMidYMid meet">
<metadata>
Created by potrace 1.11, written by Peter Selinger 2001-2013
</metadata>
<g transform="translate(0.000000,1163.000000) scale(0.100000,-0.100000)"
fill="#000000" stroke="none">
<path d="M3667 8334 c-1 -1 -55 -5 -119 -8 -65 -4 -128 -9 -140 -12 -13 -2
-45 -6 -73 -9 -27 -3 -61 -8 -75 -10 -14 -3 -41 -7 -60 -10 -79 -13 -100 -17
-220 -46 -635 -154 -1148 -480 -1504 -954 -278 -370 -416 -732 -472 -1240 -21
-191 -2 -556 40 -760 98 -479 309 -886 641 -1236 179 -189 435 -362 722 -488
80 -35 298 -114 350 -126 10 -3 63 -16 118 -30 102 -26 280 -60 370 -70 28 -4
57 -8 65 -10 101 -25 658 -25 800 0 14 3 50 7 80 10 117 13 138 16 339 50 14
2 47 9 75 15 28 6 60 12 71 14 59 13 736 185 793 203 92 28 138 106 94 159 -9
12 -46 42 -81 67 -35 25 -73 61 -86 79 -46 69 -48 90 -41 437 12 584 23 679
93 762 30 35 99 72 197 105 204 70 239 167 81 225 -28 10 -216 12 -345 4 -250
-16 -350 -19 -515 -19 -162 1 -472 11 -610 20 -136 9 -304 4 -353 -11 -55 -17
-112 -63 -112 -91 0 -59 92 -122 190 -130 25 -2 59 -6 75 -8 17 -3 57 -8 90
-11 149 -17 325 -80 388 -140 62 -59 106 -156 112 -249 14 -189 21 -720 11
-766 -3 -14 -9 -38 -13 -55 -4 -16 -7 -32 -8 -35 -13 -68 -83 -216 -117 -247
-37 -34 -178 -92 -302 -123 -110 -28 -129 -32 -254 -48 -166 -23 -475 19 -700
94 -645 216 -1144 730 -1338 1377 -33 112 -70 265 -78 332 -2 11 -6 34 -9 50
-7 30 -12 81 -26 235 -9 90 -6 501 3 560 3 19 8 53 11 75 4 22 9 54 11 70 101
642 451 1200 939 1495 193 117 436 208 625 236 19 3 42 7 50 9 47 13 166 20
325 19 202 -1 224 -4 400 -38 62 -12 235 -66 290 -91 357 -158 519 -310 689
-645 29 -58 66 -136 81 -175 47 -122 74 -169 110 -193 48 -34 82 -21 114 41
19 38 23 63 23 128 0 45 -3 102 -6 128 -4 25 -8 69 -11 96 -3 28 -7 61 -9 75
-3 14 -7 41 -10 60 -2 19 -16 109 -30 200 -13 91 -27 197 -30 235 -7 93 -21
137 -54 172 -26 28 -44 34 -180 59 -13 3 -101 21 -195 40 -95 20 -181 38 -192
40 -11 2 -31 6 -45 9 -14 3 -52 10 -85 16 -33 5 -71 12 -85 15 -112 19 -269
39 -390 49 -155 12 -485 25 -493 19z"/>
<path d="M8377 8224 c-4 -4 -504 -16 -662 -16 -93 1 -285 4 -425 8 -285 7
-353 0 -395 -42 -70 -70 19 -155 199 -190 110 -21 237 -78 291 -132 52 -51 76
-111 85 -211 8 -90 5 -2670 -4 -2971 -10 -372 -18 -518 -31 -590 -38 -217
-112 -310 -315 -400 -8 -4 -58 -17 -110 -30 -187 -45 -201 -50 -241 -88 -73
-68 -59 -130 32 -152 47 -12 334 -9 469 5 197 19 1081 24 1805 11 373 -7 452
-9 765 -21 420 -16 378 -18 447 16 76 37 99 64 113 137 9 46 65 271 85 342 21
76 60 206 90 305 45 145 54 186 55 245 0 63 -23 94 -63 86 -41 -8 -104 -62
-152 -131 -185 -265 -423 -533 -536 -606 -119 -76 -248 -91 -769 -91 -417 0
-602 14 -684 53 -51 24 -138 108 -181 174 -31 48 -34 61 -50 195 -3 19 -7 87
-10 150 -3 63 -8 149 -10 190 -14 221 -19 602 -19 1380 1 888 11 1494 29 1660
2 25 7 79 11 120 9 114 11 126 29 165 42 87 154 143 429 214 159 41 219 88
202 155 -13 52 -50 61 -274 61 -112 0 -204 0 -205 -1z"/>
</g>
</svg>
